<?xml version="1.0" encoding="UTF-8" standalone="no"?>
<!DOCTYPE svg PUBLIC "-//W3C//DTD SVG 1.1//EN" "http://www.w3.org/Graphics/SVG/1.1/DTD/svg11.dtd">
<svg width="100%" height="100%" viewBox="0 0 2500 467" version="1.1" xmlns="http://www.w3.org/2000/svg" xmlns:xlink="http://www.w3.org/1999/xlink" xml:space="preserve" xmlns:serif="http://www.serif.com/" style="fill-rule:evenodd;clip-rule:evenodd;stroke-linejoin:round;stroke-miterlimit:2;">
    <g transform="matrix(12.9698,0,0,12.9698,0,-1019)">
        <rect x="0" y="0" width="192.756" height="192.756" style="fill:white;fill-opacity:0;"/>
        <path d="M73.26,97.602L73.26,94.846C73.26,93.62 72.648,92.703 71.423,92.703L68.361,92.703L68.361,100.053L71.423,100.053C72.648,100.053 73.26,99.131 73.26,97.602ZM87.04,97.906L87.04,94.845C87.04,93.928 86.734,93.315 86.428,93.006C86.121,92.702 85.509,92.702 84.285,92.702C83.366,92.702 82.753,92.702 82.447,93.006C82.14,93.315 81.835,93.927 81.835,94.845L81.835,97.906C81.835,98.828 82.14,99.441 82.447,99.744C82.753,100.053 83.365,100.053 84.285,100.053C85.509,100.053 86.121,100.053 86.428,99.744C86.733,99.441 87.04,98.828 87.04,97.906ZM110.615,98.828C110.615,97.906 110.31,97.601 109.086,97.601L106.33,97.601L106.33,100.052L109.086,100.052C110.311,100.053 110.615,99.744 110.615,98.828ZM110.615,93.62C110.615,93.007 110.004,92.703 109.392,92.703L106.33,92.703L106.33,95.155L109.086,95.155C110.004,95.154 110.615,94.542 110.615,93.62ZM143.379,98.828C143.379,97.906 142.768,97.601 141.848,97.601L139.092,97.601L139.092,100.052L141.545,100.052C142.768,100.053 143.379,99.744 143.379,98.828ZM143.074,93.62C143.074,93.007 142.767,92.703 141.847,92.703L139.091,92.703L139.091,95.155L141.544,95.155C142.153,95.155 142.46,94.846 142.767,94.846C143.074,94.542 143.074,94.232 143.074,93.62ZM177.062,94.232C177.062,93.315 176.753,92.702 175.837,92.702L173.081,92.702L173.081,96.375L175.837,96.375C176.45,96.375 176.753,96.375 177.062,96.071L177.062,94.232ZM76.934,97.602C76.934,99.745 76.629,100.971 75.709,101.889C75.097,102.811 73.873,103.114 72.035,103.114L64.686,103.114L64.686,89.642L71.423,89.642C73.26,89.642 74.791,90.25 75.709,90.864C76.322,91.786 76.934,93.007 76.934,94.846L76.934,97.602ZM90.714,98.215C90.714,100.053 90.101,101.584 88.876,102.197C87.958,102.81 86.427,103.113 84.284,103.113C82.446,103.113 80.915,102.81 79.996,102.197C78.771,101.584 78.158,100.052 78.158,98.215L78.158,94.542C78.158,92.703 78.771,91.173 79.996,90.56C80.914,89.947 82.446,89.643 84.284,89.643C86.427,89.643 87.958,89.948 88.876,90.56C90.101,91.173 90.714,92.703 90.714,94.542L90.714,98.215ZM101.43,103.113L92.244,103.113L92.244,89.642L95.919,89.642L95.919,100.053L101.429,100.053L101.429,103.113L101.43,103.113ZM114.291,99.441C114.291,100.97 113.984,101.888 113.068,102.5C112.455,102.811 111.535,103.113 110.004,103.113L102.963,103.113L102.963,89.642L110.004,89.642C111.229,89.642 112.455,89.947 113.068,90.25C113.681,90.863 113.984,91.785 113.984,93.006C113.984,94.845 113.371,96.071 112.148,96.071L112.148,96.375C113.682,96.376 114.291,97.602 114.291,99.441ZM127.764,89.642L123.17,98.519L123.17,103.113L119.496,103.113L119.496,98.52L114.598,89.643L118.883,89.643L121.028,94.847L121.337,94.847L123.784,89.643L127.764,89.643L127.764,89.642ZM146.748,99.441C146.748,100.97 146.443,101.888 145.83,102.5C145.217,102.811 143.992,103.113 142.461,103.113L135.42,103.113L135.42,89.642L142.461,89.642C143.688,89.642 144.91,89.947 145.523,90.25C146.134,90.863 146.748,91.785 146.748,93.006C146.748,94.845 145.83,96.071 144.603,96.071L144.603,96.375C146.135,96.376 146.748,97.602 146.748,99.441ZM167.876,103.113L161.754,103.113L157.772,92.702L158.079,103.113L154.403,103.113L154.403,89.642L160.528,89.642L164.202,100.053L164.511,100.053L164.202,89.642L167.876,89.642L167.876,103.113ZM180.736,93.62C180.736,95.155 180.736,96.073 180.429,96.376C180.122,96.988 179.509,97.602 178.286,97.906C179.817,97.906 180.735,98.828 180.735,100.357L180.735,103.113L177.061,103.113L177.061,101.275C177.061,100.052 176.752,99.441 175.836,99.441L173.08,99.441L173.08,103.113L169.406,103.113L169.406,89.642L176.142,89.642C177.978,89.642 178.898,89.947 179.816,90.559C180.43,91.172 180.736,92.089 180.736,93.62ZM21.206,96.376C21.206,93.315 20.288,90.56 18.45,88.417C16.614,86.274 14.469,85.353 12.02,85.353L7.427,85.353L7.427,107.4L12.02,107.4C14.469,107.4 16.614,106.482 18.45,104.339C20.288,102.197 21.206,99.441 21.206,96.376ZM44.478,107.4L44.478,85.352L39.885,85.352C37.435,85.352 35.292,86.274 33.455,88.416C31.618,90.559 30.699,93.315 30.699,96.375C30.699,99.44 31.617,102.196 33.455,104.339C35.292,106.482 37.434,107.4 39.885,107.4L44.478,107.4ZM2.834,81.375L25.187,81.375L25.187,111.381L2.834,111.381L2.834,81.375ZM27.025,81.375L49.07,81.375L49.07,111.381L27.025,111.381L27.025,81.375Z"/>
        <path d="M55.194,81.375L189.922,81.375L189.922,111.381L55.194,111.381L55.194,81.375ZM57.338,109.238L187.779,109.238L187.779,83.518L57.338,83.518L57.338,109.238Z"/>
    </g>
</svg>
