<?xml version="1.0" encoding="UTF-8" standalone="no"?>
<!DOCTYPE svg PUBLIC "-//W3C//DTD SVG 1.1//EN" "http://www.w3.org/Graphics/SVG/1.1/DTD/svg11.dtd">
<svg width="100%" height="100%" viewBox="0 0 2500 2500" version="1.1" xmlns="http://www.w3.org/2000/svg" xmlns:xlink="http://www.w3.org/1999/xlink" xml:space="preserve" xmlns:serif="http://www.serif.com/" style="fill-rule:evenodd;clip-rule:evenodd;stroke-linejoin:round;stroke-miterlimit:2;">
    <g transform="matrix(12.9698,0,0,12.9698,0,0)">
        <rect x="0" y="0" width="192.756" height="192.756" style="fill:white;fill-opacity:0;"/>
        <path d="M11.576,9.494L11.576,120.101L94.53,120.101L94.53,9.494L11.576,9.494ZM28.856,23.325L46.142,23.325C65.228,23.325 80.704,41.889 80.704,64.799C80.704,87.708 65.228,106.278 46.142,106.278L28.856,106.278L28.856,23.325ZM181.633,9.494L181.633,120.101L98.674,120.101L98.674,9.494L181.633,9.494ZM164.348,23.325L147.067,23.325C127.975,23.325 112.499,41.889 112.499,64.799C112.499,87.708 127.976,106.278 147.067,106.278L164.348,106.278L164.348,23.325ZM15.187,183.252L40.07,183.252C50.011,183.252 55.387,181.69 55.387,170.186C55.387,164.309 54.199,160.12 47.26,159.682L47.26,159.182C53.449,158.182 54.637,154.305 54.637,148.366C54.637,138.112 49.135,136.362 39.82,136.362L15.187,136.362L15.187,183.252ZM27.691,146.615L38.194,146.615C41.507,146.615 42.133,147.803 42.133,150.615C42.133,154.367 41.07,155.117 36.694,155.117L27.691,155.117L27.691,146.615ZM27.691,163.809L37.381,163.809C41.445,163.809 42.883,164.371 42.883,168.247C42.883,172.061 41.195,172.999 37.131,172.999L27.691,172.999L27.691,163.809ZM84.522,136.361L84.522,183.252L97.025,183.252L96.276,147.24L96.338,147.115L110.031,183.252L131.35,183.252L131.35,136.361L118.846,136.361L119.596,172.373L119.533,172.436L105.654,136.361L84.522,136.361ZM151.732,169.623L161.421,169.623C165.173,169.623 166.548,171.935 166.548,175.5L166.548,183.252L179.052,183.252L179.052,173.811C179.052,168.497 176.24,166.059 170.613,165.497L170.613,164.997C178.052,163.183 179.052,159.933 179.052,150.366C179.052,139.487 174.238,136.362 163.359,136.362L139.226,136.362L139.226,183.253L151.732,183.253L151.732,169.623ZM151.732,146.615L161.421,146.615C165.548,146.615 166.548,147.865 166.548,152.054C166.548,157.868 166.298,159.368 161.421,159.368L151.732,159.368L151.732,146.615Z" style="fill:white;"/>
    </g>
</svg>
