<svg xmlns="http://www.w3.org/2000/svg" width="2500" height="2500" viewBox="0 0 192.756 192.756"><g fill-rule="evenodd" clip-rule="evenodd"><path fill="#fff" fill-opacity="0" d="M0 0h192.756v192.756H0V0z"/><path d="M11.576 9.494v110.607H94.53V9.494H11.576zm17.28 13.831h17.286c19.086 0 34.562 18.564 34.562 41.474 0 22.909-15.476 41.479-34.562 41.479H28.856V23.325zM181.633 9.494v110.607H98.674V9.494h82.959zm-17.285 13.831h-17.281c-19.092 0-34.568 18.564-34.568 41.474 0 22.909 15.477 41.479 34.568 41.479h17.281V23.325zM15.187 183.252H40.07c9.941 0 15.317-1.562 15.317-13.066 0-5.877-1.188-10.066-8.127-10.504v-.5c6.189-1 7.377-4.877 7.377-10.816 0-10.254-5.502-12.004-14.817-12.004H15.187v46.89zm12.504-36.637h10.503c3.313 0 3.939 1.188 3.939 4 0 3.752-1.063 4.502-5.439 4.502h-9.003v-8.502zm0 17.194h9.69c4.064 0 5.502.562 5.502 4.438 0 3.814-1.688 4.752-5.752 4.752h-9.44v-9.19zM84.522 136.361v46.891h12.503l-.749-36.012.062-.125 13.693 36.137h21.319v-46.891h-12.504l.75 36.012-.063.063-13.879-36.075H84.522zM151.732 169.623h9.689c3.752 0 5.127 2.312 5.127 5.877v7.752h12.504v-9.441c0-5.314-2.812-7.752-8.439-8.314v-.5c7.439-1.814 8.439-5.064 8.439-14.631 0-10.879-4.814-14.004-15.693-14.004h-24.133v46.891h12.506v-13.63zm0-23.008h9.689c4.127 0 5.127 1.25 5.127 5.439 0 5.814-.25 7.314-5.127 7.314h-9.689v-12.753z"/></g></svg>
